HIERARCHY
ROOT mixamorig:Hips
{
  OFFSET 0.000000 0.000000 0.000000
  CHANNELS 6 Xposition Yposition Zposition Xrotation Yrotation Zrotation
  JOINT mixamorig:Spine
  {
    OFFSET 1.150465 23.972063 -4.895022
    CHANNELS 3 Xrotation Yrotation Zrotation
    JOINT mixamorig:Spine2
    {
      OFFSET 1.150465 23.972063 -4.895022
      CHANNELS 3 Xrotation Yrotation Zrotation
      JOINT mixamorig:Neck
      {
        OFFSET 0.000000 4.496838 0.000000
        CHANNELS 3 Xrotation Yrotation Zrotation
        JOINT mixamorig:Head
        {
          OFFSET 0.000000 5.139168 0.000000
          CHANNELS 3 Xrotation Yrotation Zrotation
          End Site
          {
            OFFSET 0.000000 1.541751 0.000000
          }
        }
      }
      JOINT mixamorig:LeftShoulder
      {
        OFFSET 14.657595 6.279607 -3.868204
        CHANNELS 3 Xrotation Yrotation Zrotation
        JOINT mixamorig:LeftArm
        {
          OFFSET 10.000000 -2.000000 0.000000
          CHANNELS 3 Xrotation Yrotation Zrotation
          JOINT mixamorig:LeftForeArm
          {
            OFFSET 24.587725 0.000000 0.000000
            CHANNELS 3 Xrotation Yrotation Zrotation
            JOINT mixamorig:LeftHand
            {
              OFFSET 26.596884 0.000000 0.000000
              CHANNELS 3 Xrotation Yrotation Zrotation
              End Site
              {
                OFFSET 7.979065 0.000000 0.000000
              }
            }
          }
        }
      }
      JOINT mixamorig:RightShoulder
      {
        OFFSET -14.657595 6.279607 3.868204
        CHANNELS 3 Xrotation Yrotation Zrotation
        JOINT mixamorig:RightArm
        {
          OFFSET -10.000000 -2.000000 0.000000
          CHANNELS 3 Xrotation Yrotation Zrotation
          JOINT mixamorig:RightForeArm
          {
            OFFSET -24.587725 0.000000 0.000000
            CHANNELS 3 Xrotation Yrotation Zrotation
            JOINT mixamorig:RightHand
            {
              OFFSET -26.596884 0.000000 0.000000
              CHANNELS 3 Xrotation Yrotation Zrotation
              End Site
              {
                OFFSET -7.979065 0.000000 0.000000
              }
            }
          }
        }
      }
    }
  }
  JOINT mixamorig:LeftUpLeg
  {
    OFFSET 8.975169 -0.526327 1.981741
    CHANNELS 3 Xrotation Yrotation Zrotation
    JOINT mixamorig:LeftLeg
    {
      OFFSET 1.377157 -38.030245 -0.046855
      CHANNELS 3 Xrotation Yrotation Zrotation
      JOINT mixamorig:LeftFoot
      {
        OFFSET -3.515420 -39.917539 14.783880
        CHANNELS 3 Xrotation Yrotation Zrotation
        JOINT mixamorig:LeftToeBase
        {
          OFFSET 3.761979 -2.436963 -8.094106
          CHANNELS 3 Xrotation Yrotation Zrotation
          End Site
          {
            OFFSET 1.128594 -0.731089 -2.428232
          }
        }
      }
    }
  }
  JOINT mixamorig:RightUpLeg
  {
    OFFSET -8.975169 0.526327 -1.981741
    CHANNELS 3 Xrotation Yrotation Zrotation
    JOINT mixamorig:RightLeg
    {
      OFFSET 2.711921 -37.956722 -0.361912
      CHANNELS 3 Xrotation Yrotation Zrotation
      JOINT mixamorig:RightFoot
      {
        OFFSET -0.836660 -40.893921 12.301154
        CHANNELS 3 Xrotation Yrotation Zrotation
        JOINT mixamorig:RightToeBase
        {
          OFFSET -2.003346 -0.846234 -8.993126
          CHANNELS 3 Xrotation Yrotation Zrotation
          End Site
          {
            OFFSET -0.601004 -0.253870 -2.697938
          }
        }
      }
    }
  }
}
MOTION
Frames: 12
Frame Time: 0.041667
2.339846 0.179321 0.000000 10.730701 -0.499375 0.068443 0.000898 0.018810 0.092326 -11.890928 -7.399273 -0.218019 6.289852 3.799354 5.482234 6.583258 3.208969 5.922982 0.000000 0.000000 0.000000 11.025290 -14.061690 -76.084978 0.389800 -13.113497 -3.391283 0.000000 0.000000 0.000000 0.000000 0.000000 0.000000 -68.964916 -37.592643 127.409958 -39.302781 -39.404751 89.620371 0.000000 0.000000 0.000000 -10.401636 -0.691134 -3.481990 -3.118464 2.561646 5.655500 -22.731444 18.226834 -19.466732 0.000000 0.000000 0.000000 -16.771309 -1.049293 1.126733 1.853920 -0.479912 -1.561647 -4.675199 14.366370 -0.936327 0.000000 0.000000 0.000000
2.322052 0.183937 0.000000 10.688541 -0.490976 0.127557 0.000887 0.018663 0.091604 -11.941694 -8.458860 -0.311022 6.159233 4.007491 5.507637 6.471172 3.426438 5.959743 0.000000 0.000000 0.000000 10.689677 -13.735152 -75.675639 0.395986 -12.921426 -3.501652 0.000000 0.000000 0.000000 0.000000 0.000000 0.000000 -75.453046 -42.741759 126.373934 -44.026032 -38.173786 98.865051 0.000000 0.000000 0.000000 -10.488339 -0.700546 -3.521085 -3.330510 2.610666 5.698655 -20.987757 19.351409 -18.750205 0.000000 0.000000 0.000000 -16.703165 -1.055107 1.053222 1.634009 -0.454625 -1.477471 -4.170083 14.368820 -0.986945 0.000000 0.000000 0.000000
2.306312 0.188063 0.000000 10.659131 -0.481558 0.201402 0.000874 0.018561 0.091101 -11.974761 -9.146175 -0.408426 6.006426 4.131901 5.674227 6.339639 3.546350 6.127178 0.000000 0.000000 0.000000 10.343685 -13.363802 -75.376921 0.427558 -12.497556 -3.907189 0.000000 0.000000 0.000000 0.000000 0.000000 0.000000 -78.939531 -45.398367 126.141970 -44.980193 -36.738787 102.539951 0.000000 0.000000 0.000000 -10.626889 -0.715246 -3.579380 -3.453903 2.652351 5.755845 -19.157810 20.255649 -17.878265 0.000000 0.000000 0.000000 -16.530173 -1.056442 0.962629 1.267312 -0.427065 -1.390006 -3.502531 14.308361 -1.044959 0.000000 0.000000 0.000000
2.291842 0.191283 0.000000 10.647307 -0.476342 0.244114 0.000866 0.018520 0.090900 -11.986384 -9.387047 -0.459798 5.849222 4.173204 5.938490 6.204033 3.573285 6.383499 0.000000 0.000000 0.000000 10.064789 -13.042273 -75.217390 0.462542 -12.268618 -4.302377 0.000000 0.000000 0.000000 0.000000 0.000000 0.000000 -80.061134 -46.126834 126.243995 -44.066871 -35.544192 103.250328 0.000000 0.000000 0.000000 -10.678325 -0.721497 -3.609008 -3.297719 2.649650 5.806308 -18.369096 20.437451 -17.419573 0.000000 0.000000 0.000000 -16.178709 -1.042663 0.896610 0.793222 -0.408487 -1.338120 -2.913492 14.169536 -1.087162 0.000000 0.000000 0.000000
2.280241 0.193573 0.000000 10.644050 -0.471033 0.291459 0.000857 0.018509 0.090844 -11.987070 -9.401259 -0.507614 5.758986 4.199166 6.165432 6.131242 3.583459 6.606236 0.000000 0.000000 0.000000 9.816452 -12.729616 -75.182398 0.486391 -12.202375 -4.548046 0.000000 0.000000 0.000000 0.000000 0.000000 0.000000 -80.749196 -46.947993 125.891207 -44.011466 -34.414363 105.080129 0.000000 0.000000 0.000000 -10.723695 -0.730024 -3.667365 -3.145416 2.650682 5.865013 -17.276896 20.629742 -16.763061 0.000000 0.000000 0.000000 -15.751680 -1.023562 0.830830 0.272358 -0.399104 -1.319856 -2.194969 13.592551 -1.091873 0.000000 0.000000 0.000000
2.270651 0.195313 0.000000 10.643236 -0.465655 0.340524 0.000847 0.018506 0.090830 -11.985839 -9.375779 -0.555535 5.754533 4.196811 6.291053 6.134440 3.568116 6.731735 0.000000 0.000000 0.000000 9.526811 -12.351274 -75.200904 0.506150 -12.190456 -4.737477 0.000000 0.000000 0.000000 0.000000 0.000000 0.000000 -80.658513 -47.251138 125.478819 -44.103938 -33.638402 106.533906 0.000000 0.000000 0.000000 -10.749722 -0.741333 -3.768949 -2.957206 2.676118 5.997747 -15.719241 20.991526 -15.861536 0.000000 0.000000 0.000000 -15.363545 -1.006338 0.766759 -0.041168 -0.400720 -1.333423 -1.384268 12.654419 -1.069738 0.000000 0.000000 0.000000
2.264746 0.196596 0.000000 10.645915 -0.457279 0.418755 0.000830 0.018517 0.090875 -11.984350 -9.344938 -0.631606 5.764365 4.158332 6.316966 6.142336 3.525826 6.754968 0.000000 0.000000 0.000000 9.327016 -12.075114 -75.283821 0.513393 -12.159371 -4.817349 0.000000 0.000000 0.000000 0.000000 0.000000 0.000000 -79.781507 -47.327792 124.665322 -44.998490 -33.409049 108.131765 0.000000 0.000000 0.000000 -10.836043 -0.762023 -3.924481 -2.728448 2.708030 6.162878 -14.820505 21.176770 -15.334197 0.000000 0.000000 0.000000 -15.177329 -1.004878 0.680176 -0.271908 -0.407629 -1.362067 -0.753205 12.095051 -1.081293 0.000000 0.000000 0.000000
2.262691 0.197576 0.000000 10.649053 -0.447362 0.511387 0.000806 0.018528 0.090927 -11.979926 -9.253313 -0.720057 5.764770 4.109230 6.320810 6.138613 3.476209 6.754247 0.000000 0.000000 0.000000 9.191062 -11.873009 -75.409121 0.514164 -12.181230 -4.815861 0.000000 0.000000 0.000000 0.000000 0.000000 0.000000 -79.393188 -48.186488 123.372797 -46.962980 -33.632371 110.297988 0.000000 0.000000 0.000000 -10.972188 -0.785423 -4.068897 -2.441569 2.711338 6.280539 -14.308503 21.131034 -14.981157 0.000000 0.000000 0.000000 -15.066495 -1.006580 0.606412 -0.441272 -0.423213 -1.417367 -0.176461 11.693472 -1.109461 0.000000 0.000000 0.000000
2.263896 0.198193 0.000000 10.654750 -0.441610 0.566967 0.000791 0.018549 0.091024 -11.978872 -9.231488 -0.773510 5.772023 4.128047 6.332243 6.148126 3.493087 6.768087 0.000000 0.000000 0.000000 9.034600 -11.641068 -75.554544 0.518816 -12.144792 -4.874013 0.000000 0.000000 0.000000 0.000000 0.000000 0.000000 -78.492448 -48.909750 121.788271 -49.952836 -34.283574 112.952832 0.000000 0.000000 0.000000 -11.070466 -0.802998 -4.177470 -2.189600 2.718967 6.397445 -13.675662 20.805408 -14.451408 0.000000 0.000000 0.000000 -14.916499 -1.001566 0.565389 -0.635097 -0.436174 -1.464073 0.358096 11.201971 -1.126853 0.000000 0.000000 0.000000
2.267342 0.198518 0.000000 10.666652 -0.442332 0.565960 0.000794 0.018590 0.091227 -11.978297 -9.219562 -0.770237 5.746506 4.187188 6.317792 6.127303 3.556421 6.756934 0.000000 0.000000 0.000000 8.834884 -11.362884 -75.660471 0.534760 -12.150193 -5.021301 0.000000 0.000000 0.000000 0.000000 0.000000 0.000000 -77.711607 -49.197707 120.783442 -51.720401 -34.568888 114.602725 0.000000 0.000000 0.000000 -11.224481 -0.821846 -4.254948 -1.807931 2.729493 6.573957 -13.178199 20.307995 -13.953688 0.000000 0.000000 0.000000 -14.829586 -0.990945 0.604802 -0.702997 -0.457609 -1.535225 0.759603 10.943811 -1.153310 0.000000 0.000000 0.000000
2.270412 0.198633 0.000000 10.692180 -0.446560 0.539068 0.000809 0.018679 0.091663 -11.977705 -9.207287 -0.739159 5.679969 4.312165 6.285014 6.070665 3.691756 6.729968 0.000000 0.000000 0.000000 8.527976 -10.955451 -75.729452 0.565758 -12.178627 -5.298096 0.000000 0.000000 0.000000 0.000000 0.000000 0.000000 -77.209983 -49.012257 120.552522 -51.639015 -34.331212 114.890403 0.000000 0.000000 0.000000 -11.296314 -0.836423 -4.349075 -1.532809 2.780052 6.813063 -12.517265 20.097695 -13.453357 0.000000 0.000000 0.000000 -14.694403 -0.977054 0.644929 -0.805121 -0.468568 -1.572784 0.917272 10.837624 -1.163867 0.000000 0.000000 0.000000
2.271331 0.198726 0.000000 10.723617 -0.454748 0.478220 0.000833 0.018787 0.092202 -11.972063 -9.090314 -0.670609 5.631818 4.423432 6.258781 6.031229 3.810762 6.709678 0.000000 0.000000 0.000000 8.292916 -10.650108 -75.750736 0.613284 -12.361669 -5.654152 0.000000 0.000000 0.000000 0.000000 0.000000 0.000000 -76.956943 -49.027407 120.311368 -51.548993 -34.116209 115.131480 0.000000 0.000000 0.000000 -11.420869 -0.850747 -4.399467 -1.219517 2.818224 7.038985 -11.967371 19.955863 -13.050665 0.000000 0.000000 0.000000 -14.665032 -0.967687 0.706779 -0.797004 -0.473169 -1.587580 0.959269 10.775313 -1.163633 0.000000 0.000000 0.000000
